<svg xmlns="http://www.w3.org/2000/svg" width="1024" height="1024" viewBox="0 0 627.02 627.02" role="img" aria-label="Orbital Corners app logo">
  <style>
    :root {
      --logo-bg: #1E212A;
      --logo-fg: #2ECC8A;
    }
    .bg { fill: var(--logo-bg); }
    .fg { fill: var(--logo-fg); }
  </style>
  <rect class="bg" width="627.02" height="627.02"/>
  <path class="fg" fill-rule="evenodd" d="M269.51 450.51 L253.51 437.51 L251.51 437.51 L242.51 428.51 L240.51 428.51 L211.51 400.51 L209.51 400.51 L166.51 353.51 L162.51 356.51 L162.51 358.51 L152.51 370.51 L138.51 396.51 L129.51 422.51 L126.51 439.51 L128.51 462.51 L134.51 474.51 L145.51 481.51 L158.51 484.51 L186.51 483.51 L211.51 477.51 L240.51 466.51 Z M97.51 435.51 L98.51 409.51 L106.51 371.51 L120.51 333.51 L135.51 306.51 L113.51 261.51 L101.51 222.51 L97.51 196.51 L97.51 171.51 L99.51 156.51 L107.51 135.51 L122.51 119.51 L147.51 108.51 L174.51 104.51 L209.51 105.51 L236.51 109.51 L275.51 120.51 L305.51 132.51 L311.51 136.51 L362.51 116.51 L396.51 108.51 L418.51 105.51 L454.51 105.51 L473.51 108.51 L491.51 114.51 L506.51 123.51 L519.51 139.51 L524.51 151.51 L528.51 171.51 L528.51 197.51 L524.51 224.51 L514.51 258.51 L503.51 281.51 L503.51 284.51 L491.51 306.51 L510.51 341.51 L519.51 364.51 L526.51 387.51 L531.51 419.51 L531.51 444.51 L527.51 464.51 L520.51 479.51 L513.51 486.51 L513.51 488.51 L505.51 495.51 L492.51 502.51 L480.51 506.51 L453.51 510.51 L418.51 509.51 L383.51 503.51 L356.51 495.51 L354.51 493.51 L350.51 493.51 L327.51 482.51 L324.51 482.51 L314.51 476.51 L299.51 484.51 L269.51 496.51 L235.51 505.51 L205.51 509.51 L175.51 509.51 L153.51 506.51 L127.51 496.51 L112.51 483.51 L105.51 472.51 L100.51 458.51 Z M20.51 433.51 L25.51 427.51 L33.51 427.51 L69.51 481.51 L97.51 512.51 L99.51 512.51 L111.51 525.51 L113.51 525.51 L119.51 532.51 L121.51 532.51 L141.51 549.51 L162.51 563.51 L173.51 568.51 L174.51 570.51 L191.51 578.51 L193.51 582.51 L192.51 588.51 L187.51 592.51 L25.51 591.51 L20.51 585.51 Z M500.51 172.51 L499.51 154.51 L495.51 143.51 L488.51 136.51 L470.51 130.51 L442.51 130.51 L415.51 136.51 L391.51 145.51 L357.51 163.51 L370.51 174.51 L372.51 174.51 L375.51 178.51 L385.51 184.51 L410.51 208.51 L412.51 208.51 L421.51 217.51 L421.51 219.51 L424.51 220.51 L428.51 226.51 L440.51 237.51 L440.51 239.51 L447.51 245.51 L447.51 247.51 L459.51 260.51 L461.51 260.51 L466.51 255.51 L487.51 219.51 L495.51 198.51 Z M124.51 156.51 L125.51 181.51 L134.51 211.51 L151.51 243.51 L164.51 260.51 L219.51 202.51 L221.51 202.51 L229.51 193.51 L231.51 193.51 L247.51 178.51 L268.51 164.51 L258.51 157.51 L219.51 139.51 L200.51 133.51 L176.51 129.51 L148.51 130.51 L135.51 135.51 L129.51 141.51 Z M433.51 586.51 L433.51 582.51 L436.51 577.51 L450.51 571.51 L469.51 558.51 L473.51 557.51 L475.51 554.51 L479.51 553.51 L481.51 550.51 L503.51 535.51 L515.51 523.51 L517.51 523.51 L545.51 495.51 L545.51 493.51 L560.51 477.51 L560.51 475.51 L563.51 473.51 L579.51 450.51 L591.51 428.51 L596.51 426.51 L601.51 427.51 L604.51 429.51 L606.51 434.51 L606.51 583.51 L601.51 591.51 L439.51 592.51 Z M358.51 449.51 L366.51 455.51 L401.51 472.51 L424.51 480.51 L447.51 485.51 L472.51 485.51 L490.51 479.51 L497.51 472.51 L502.51 456.51 L500.51 427.51 L492.51 403.51 L473.51 368.51 L461.51 354.51 L457.51 356.51 L457.51 358.51 L437.51 378.51 L437.51 380.51 L406.51 411.51 L404.51 411.51 L398.51 418.51 L396.51 418.51 L379.51 434.51 L373.51 437.51 L369.51 442.51 Z M433.51 45.51 L434.51 37.51 L439.51 34.51 L598.51 34.51 L601.51 35.51 L605.51 40.51 L605.51 195.51 L601.51 200.51 L597.51 201.51 L590.51 198.51 L579.51 177.51 L565.51 156.51 L555.51 145.51 L555.51 143.51 L517.51 103.51 L515.51 103.51 L509.51 96.51 L507.51 96.51 L503.51 91.51 L501.51 91.51 L481.51 74.51 L466.51 64.51 L455.51 59.51 L454.51 57.51 L435.51 48.51 Z M194.51 304.51 L194.51 308.51 L202.51 316.51 L210.51 328.51 L216.51 333.51 L216.51 335.51 L253.51 373.51 L255.51 373.51 L256.51 376.51 L258.51 376.51 L265.51 384.51 L267.51 384.51 L274.51 392.51 L281.51 396.51 L295.51 409.51 L313.51 421.51 L335.51 406.51 L343.51 398.51 L345.51 398.51 L366.51 378.51 L368.51 378.51 L384.51 361.51 L386.51 361.51 L388.51 357.51 L410.51 335.51 L410.51 333.51 L415.51 329.51 L415.51 327.51 L420.51 323.51 L420.51 321.51 L432.51 307.51 L425.51 296.51 L417.51 288.51 L417.51 286.51 L407.51 276.51 L407.51 274.51 L374.51 240.51 L371.51 239.51 L371.51 237.51 L369.51 237.51 L361.51 228.51 L359.51 228.51 L337.51 208.51 L335.51 208.51 L333.51 205.51 L313.51 191.51 L288.51 208.51 L267.51 227.51 L265.51 227.51 L257.51 236.51 L255.51 236.51 L222.51 269.51 L222.51 271.51 L215.51 277.51 L215.51 279.51 L210.51 283.51 L210.51 285.51 L205.51 289.51 L205.51 291.51 Z M193.51 44.51 L191.51 48.51 L172.51 57.51 L138.51 79.51 L122.51 93.51 L120.51 93.51 L116.51 98.51 L114.51 98.51 L103.51 110.51 L101.51 110.51 L101.51 112.51 L93.51 118.51 L93.51 120.51 L70.51 144.51 L70.51 146.51 L67.51 148.51 L46.51 178.51 L38.51 194.51 L33.51 200.51 L25.51 200.51 L21.51 195.51 L20.51 149.51 L20.51 42.51 L25.51 35.51 L187.51 34.51 L192.51 37.51 Z"/>
</svg>