<svg xmlns="http://www.w3.org/2000/svg" width="1024" height="1024" viewBox="0 0 669.82 669.82" role="img" aria-label="Surround Option 6 app logo">
  <style>
    :root {
      --logo-bg: #071014;
      --logo-fg: #5EEAD4;
    }
    .bg { fill: var(--logo-bg); }
    .fg { fill: var(--logo-fg); }
  </style>
  <rect class="bg" width="669.82" height="669.82"/>
  <path class="fg" fill-rule="evenodd" d="M57.41 193.91 L58.41 185.91 L60.41 184.91 L68.41 168.91 L71.41 166.91 L171.41 138.91 L143.41 165.91 L143.41 167.91 L130.41 181.91 L113.41 207.91 L94.41 248.91 L86.41 275.91 L83.41 293.91 L81.41 290.91 Z M191.41 323.91 L192.41 354.91 L199.41 383.91 L214.41 413.91 L217.41 415.91 L222.41 424.91 L228.41 429.91 L228.41 431.91 L249.41 450.91 L279.41 467.91 L305.41 475.91 L331.41 478.91 L358.41 476.91 L385.41 469.91 L411.41 456.91 L420.41 450.91 L423.41 446.91 L425.41 446.91 L429.41 441.91 L431.41 441.91 L450.41 420.91 L465.41 395.91 L474.41 370.91 L478.41 345.91 L477.41 314.91 L470.41 285.91 L455.41 255.91 L452.41 253.91 L447.41 244.91 L441.41 239.91 L441.41 237.91 L420.41 218.91 L390.41 201.91 L364.41 193.91 L338.41 190.91 L311.41 192.91 L284.41 199.91 L258.41 212.91 L249.41 218.91 L246.41 222.91 L244.41 222.91 L240.41 227.91 L238.41 227.91 L219.41 248.91 L204.41 273.91 L195.41 298.91 Z M509.41 324.91 L508.41 355.91 L502.41 384.91 L489.41 416.91 L468.41 447.91 L447.41 468.91 L421.41 486.91 L403.41 495.91 L383.41 502.91 L352.41 508.91 L317.41 508.91 L286.41 502.91 L266.41 495.91 L248.41 486.91 L222.41 468.91 L201.41 447.91 L180.41 416.91 L171.41 396.91 L165.41 377.91 L160.41 344.91 L161.41 313.91 L167.41 284.91 L180.41 252.91 L201.41 221.91 L222.41 200.91 L248.41 182.91 L266.41 173.91 L286.41 166.91 L317.41 160.91 L352.41 160.91 L383.41 166.91 L403.41 173.91 L421.41 182.91 L447.41 200.91 L468.41 221.91 L489.41 252.91 L498.41 272.91 L504.41 291.91 Z M244.41 95.91 L320.41 21.91 L347.41 21.91 L422.41 93.91 L419.41 94.91 L400.41 87.91 L370.41 81.91 L349.41 79.91 L320.41 79.91 L282.41 84.91 Z M173.41 531.91 L167.41 531.91 L161.41 528.91 L70.41 503.91 L59.41 482.91 L57.41 481.91 L82.41 379.91 L84.41 378.91 L87.41 397.91 L94.41 420.91 L113.41 461.91 L115.41 462.91 L125.41 480.91 L138.41 495.91 L138.41 497.91 L143.41 501.91 L143.41 503.91 Z M247.41 575.91 L250.41 574.91 L269.41 581.91 L299.41 587.91 L320.41 589.91 L349.41 589.91 L387.41 584.91 L425.41 573.91 L349.41 647.91 L322.41 647.91 Z M612.41 187.91 L587.41 289.91 L585.41 290.91 L582.41 271.91 L575.41 248.91 L556.41 207.91 L532.41 172.91 L504.41 143.91 L502.41 143.91 L496.41 137.91 L502.41 137.91 L508.41 140.91 L599.41 165.91 Z M612.41 475.91 L611.41 483.91 L609.41 484.91 L601.41 500.91 L598.41 502.91 L498.41 530.91 L526.41 503.91 L526.41 501.91 L539.41 487.91 L556.41 461.91 L575.41 420.91 L583.41 393.91 L586.41 375.91 L588.41 378.91 Z"/>
</svg>