<svg xmlns="http://www.w3.org/2000/svg" width="32" height="32" viewBox="0 0 32 32" fill="none" style="color:#E7ECEF">
  <path d="M5.5 5.5H26.5V26.5H5.5V5.5Z" stroke="currentColor" stroke-opacity="0.72" stroke-width="2" stroke-linejoin="round"/>
  <path d="M5.5 16H26.5M10.75 12H21.25M10.75 21.5H21.25" stroke="currentColor" stroke-opacity="0.42" stroke-width="2" stroke-linecap="round"/>
  <g fill="currentColor">
    <circle cx="5.5" cy="5.5" r="2.85"/>
    <circle cx="10.75" cy="5.5" r="2.85"/>
    <circle cx="16" cy="5.5" r="2.85"/>
    <circle cx="21.25" cy="5.5" r="2.85"/>
    <circle cx="26.5" cy="5.5" r="2.85"/>
    <circle cx="10.75" cy="12" r="2.65"/>
    <circle cx="16" cy="12" r="2.65"/>
    <circle cx="21.25" cy="12" r="2.65"/>
    <circle cx="5.5" cy="16" r="2.85"/>
    <circle cx="26.5" cy="16" r="2.85"/>
    <circle cx="10.75" cy="21.5" r="2.65"/>
    <circle cx="16" cy="21.5" r="2.65"/>
    <circle cx="21.25" cy="21.5" r="2.65"/>
    <circle cx="5.5" cy="26.5" r="2.85"/>
    <circle cx="26.5" cy="26.5" r="2.85"/>
  </g>
</svg>
